# xmcd CD database file
#
# Track frame offsets:
#	150
#	21364
#	42442
#	61665
#	107027
#	120065
#	150984
#	166071
#	187751
#	214564
#	235221
#	258999
#	284356
#	309862
#	328047
#	347875
#
# Disc length: 4949 seconds
#
# Revision: 0
# Processed by: cddbd v1.5.2PL0 Copyright (c) Steve Scherf et al.
# Submitted via: CDex 1.51
#
DISCID=c9135310
DTITLE=Mike Oldfirld - Light&Shade
DYEAR=2005
DGENRE=New Age
TTITLE0=Angelique
TTITLE1=Blackbird
TTITLE2=Gate
TTITLE3=First Steps
TTITLE4=Closer
TTITLE5=Our Father
TTITLE6=Rocky
TTITLE7=Sunset
TTITLE8=Quicksilver
TTITLE9=Resolution
TTITLE10=Slipstream
TTITLE11=Surfing
TTITLE12=Tears Of An Angel
TTITLE13=Romance
TTITLE14=Ringscape
TTITLE15=Nightshade
EXTD=YEAR: 2005
EXTT0=
EXTT1=
EXTT2=
EXTT3=
EXTT4=
EXTT5=
EXTT6=
EXTT7=
EXTT8=
EXTT9=
EXTT10=
EXTT11=
EXTT12=
EXTT13=
EXTT14=
EXTT15=
PLAYORDER=
